<svg width="1436" height="337" viewBox="0 0 1436 337" fill="none" xmlns="http://www.w3.org/2000/svg">
<path d="M360.272 228.139L333.594 226.506C329.708 226.268 326.363 229.235 326.125 233.133L324.293 263.041L252.456 258.643L257.024 184.033L306.282 187.049C310.168 187.287 313.513 184.319 313.751 180.421L315.192 156.894C315.43 152.996 312.473 149.643 308.587 149.405L259.329 146.389L261.618 109.006C262.78 90.028 278.077 76.3111 299.909 77.6479C313.782 78.4973 326.398 86.0622 333.037 90.8045C335.942 92.8793 339.935 92.4377 342.334 89.7885L360.321 69.9234C362.993 66.9721 362.712 62.3918 359.694 59.8005C350.533 51.9377 329.913 37.356 301.388 35.6094C253.358 32.6686 217.432 61.6072 214.796 104.674L212.417 143.517L195.998 142.511C192.112 142.273 188.768 145.241 188.529 149.139L187.088 172.666C186.85 176.564 189.807 179.917 193.693 180.155L210.112 181.16L205.503 256.448L184.392 255.155C180.506 254.917 177.162 257.885 176.923 261.783L175.483 285.31C175.244 289.208 178.201 292.561 182.087 292.799L355.662 303.427C359.548 303.665 362.893 300.698 363.131 296.8L366.877 235.628C367.115 231.731 364.158 228.377 360.272 228.139Z" fill="black" fill-opacity="0.3"/>
<path d="M1351.73 254.249C1344.52 268.081 1333.84 277.661 1319.69 282.99C1305.54 288.32 1290.7 288.436 1275.18 283.338L1262.82 307.07C1262.16 308.335 1261.22 309.164 1259.98 309.556C1258.75 309.948 1257.5 309.816 1256.24 309.161L1238.04 299.675C1236.87 299.067 1236.08 298.11 1235.67 296.806C1235.26 295.503 1235.37 294.263 1235.98 293.088L1248.34 269.357C1242.83 265.451 1237.83 261.064 1233.33 256.195C1228.84 251.325 1225.32 246.936 1222.79 243.029C1220.25 239.121 1218.05 235.218 1216.2 231.32C1214.34 227.422 1213.13 224.638 1212.57 222.968C1212.01 221.298 1211.65 220.074 1211.48 219.297C1210.94 216.603 1211.82 214.702 1214.11 213.597L1237.54 202.527C1238.64 201.951 1239.96 201.947 1241.49 202.516C1242.93 203.037 1243.8 204.006 1244.09 205.422L1244.22 205.834C1249.72 220.077 1257.7 231.418 1268.17 239.858C1271.12 242.315 1274.25 244.409 1277.58 246.142C1284.87 249.936 1292.28 251.33 1299.84 250.323C1307.4 249.317 1313.03 245.242 1316.75 238.1C1318.07 235.569 1318.65 232.822 1318.47 229.859C1318.3 226.897 1317.78 224.214 1316.92 221.81C1316.06 219.407 1314.31 216.342 1311.68 212.615C1309.05 208.888 1306.84 205.896 1305.04 203.638C1303.24 201.381 1300.41 198.038 1296.54 193.61C1293.79 190.337 1291.61 187.766 1290.01 185.899C1288.42 184.031 1286.27 181.393 1283.59 177.984C1280.91 174.575 1278.83 171.71 1277.35 169.389C1275.87 167.068 1274.17 164.14 1272.24 160.605C1270.31 157.071 1268.9 153.897 1268.02 151.083C1267.15 148.27 1266.34 145.036 1265.62 141.382C1264.89 137.728 1264.66 134.275 1264.93 131.023C1265.19 127.77 1265.81 124.273 1266.79 120.529C1267.77 116.786 1269.22 113.061 1271.16 109.355C1277.65 96.8791 1287.76 88.2353 1301.47 83.4236C1315.18 78.6119 1329.8 78.527 1345.33 83.1688L1358.04 58.7596C1358.66 57.5844 1359.61 56.7898 1360.91 56.376C1362.22 55.9621 1363.45 56.0596 1364.62 56.6686L1382.83 66.1537C1384.09 66.8095 1384.91 67.755 1385.3 68.9902C1385.68 70.2254 1385.54 71.4758 1384.88 72.7415L1372.45 96.6082C1377.3 99.8206 1381.72 103.448 1385.73 107.491C1389.74 111.534 1392.86 115.086 1395.1 118.146C1397.34 121.207 1399.31 124.39 1401.02 127.693C1402.72 130.997 1403.8 133.221 1404.23 134.366C1404.66 135.511 1405.01 136.495 1405.26 137.318C1405.94 139.742 1405.27 141.577 1403.25 142.823L1382.01 156.93C1380.59 157.912 1379.18 158.096 1377.78 157.484C1376.38 157.099 1375.33 156.151 1374.63 154.638C1374.51 154.226 1374.14 153.344 1373.53 151.992C1372.92 150.639 1371.79 148.528 1370.14 145.658C1368.49 142.788 1366.61 139.971 1364.51 137.208C1362.4 134.445 1359.67 131.525 1356.3 128.448C1352.93 125.371 1349.35 122.849 1345.58 120.881C1337.03 116.431 1329.05 114.745 1321.63 115.822C1314.21 116.899 1308.9 120.511 1305.7 126.659C1304.47 129.009 1303.73 131.378 1303.45 133.765C1303.18 136.152 1303.53 138.719 1304.5 141.465C1305.47 144.212 1306.47 146.629 1307.5 148.716C1308.53 150.803 1310.31 153.515 1312.86 156.854C1315.41 160.193 1317.49 162.83 1319.11 164.766C1320.74 166.702 1323.23 169.585 1326.61 173.414C1330.44 177.704 1333.34 181.025 1335.31 183.376C1337.29 185.727 1339.88 189.089 1343.09 193.462C1346.3 197.835 1348.7 201.524 1350.27 204.53C1351.85 207.536 1353.46 211.248 1355.1 215.667C1356.75 220.085 1357.63 224.197 1357.77 228.002C1357.9 231.806 1357.52 236.002 1356.61 240.589C1355.71 245.175 1354.08 249.729 1351.73 254.249Z" fill="black" fill-opacity="0.3"/>
<path d="M174.095 211.733L182.822 235.259C183.297 236.437 183.304 237.603 182.842 238.757C182.381 239.91 181.618 240.769 180.555 241.332L179.813 241.591C179.435 241.851 178.925 242.104 178.285 242.349C177.644 242.594 176.862 242.936 175.938 243.376C175.013 243.816 173.958 244.249 172.772 244.673C171.586 245.098 170.324 245.533 168.985 245.979C167.647 246.425 166.155 246.892 164.511 247.381C162.868 247.869 161.195 248.336 159.493 248.78C157.791 249.225 155.954 249.637 153.984 250.015C152.013 250.394 150.061 250.718 148.127 250.987C124.31 254.307 102.57 250.568 82.9069 239.771C63.2438 228.974 48.6388 212.777 39.0917 191.182L24.5876 193.203C23.2645 193.388 22.052 193.064 20.9503 192.232C19.8487 191.4 19.2056 190.323 19.0212 189L16.617 171.751C16.4326 170.428 16.7565 169.216 17.5887 168.114C18.4208 167.013 19.4985 166.37 20.8217 166.185L30.8982 164.781C29.8861 159.009 29.1923 153.659 28.8168 148.732L18.5877 150.158C17.1627 150.356 15.9284 150.062 14.8847 149.273C13.841 148.485 13.2198 147.379 13.0212 145.954L10.5957 128.553C10.3971 127.128 10.692 125.894 11.4804 124.85C12.2688 123.807 13.3755 123.186 14.8004 122.987L29.7625 120.902C33.6032 98.581 43.5981 79.6559 59.7472 64.1263C75.8963 48.5966 95.3705 39.2429 118.17 36.0649C128.552 34.6178 138.588 34.4119 148.278 35.4472C149.44 35.5965 150.564 36.2178 151.651 37.3113C152.417 38.3455 152.74 39.5454 152.619 40.9109L149.437 66.0963C149.316 67.4618 148.742 68.5533 147.715 69.3708C146.687 70.1883 145.484 70.4857 144.104 70.2631L143.472 70.1956C143.05 70.1506 142.447 70.105 141.663 70.0587L138.917 69.8969L135.407 69.8415L131.374 69.9368L126.893 70.1724L122.368 70.6475C109.543 72.4351 98.4954 77.2946 89.225 85.2261C79.9545 93.1577 73.569 103.177 70.0685 115.284L141.52 105.324C143.149 105.097 144.506 105.53 145.592 106.624C146.78 107.703 147.321 108.976 147.214 110.444L145.975 128.356C145.835 131.072 144.391 132.622 141.643 133.005L67.1381 143.39C67.3575 147.198 68.1022 152.541 69.3721 159.418L139.45 149.65C140.976 149.437 142.334 149.871 143.522 150.95C144.608 152.043 145.105 153.375 145.012 154.944L143.731 172.55C143.683 173.698 143.255 174.717 142.445 175.608C141.636 176.499 140.671 177.023 139.551 177.179L80.4664 185.414C87.0115 196.64 95.9354 205.018 107.238 210.548C118.541 216.079 130.655 217.944 143.581 216.142C145.414 215.886 147.235 215.555 149.046 215.147C150.857 214.739 152.537 214.323 154.086 213.9C155.635 213.476 157.105 213.038 158.494 212.585C159.884 212.132 161.095 211.704 162.128 211.3C163.161 210.897 164.071 210.537 164.857 210.22L166.625 209.506L167.346 209.095C168.598 208.401 169.936 208.319 171.358 208.847C172.679 209.389 173.591 210.351 174.095 211.733Z" fill="black" fill-opacity="0.3"/>
<path d="M1224.94 69.0144L1227.8 89.3875C1228.07 91.2517 1227.68 92.8677 1226.64 94.2356C1225.61 95.6035 1224.15 96.4192 1222.28 96.6828L1188.56 101.428C1188.19 121.035 1181.75 137.829 1169.25 151.809C1156.76 165.789 1139.32 175.711 1116.95 181.575C1142.63 202.133 1178.36 233.498 1224.14 275.671C1226.31 277.538 1226.9 279.764 1225.9 282.349C1225.16 284.896 1223.39 286.368 1220.58 286.763L1181.45 292.27C1179.31 292.572 1177.52 292.008 1176.09 290.58C1128.27 247.472 1089.61 214.144 1060.1 190.595C1058.72 189.566 1057.91 188.186 1057.67 186.455L1054.1 161.089C1053.86 159.358 1054.28 157.77 1055.38 156.326C1056.47 154.882 1057.88 154.038 1059.62 153.793L1082.1 150.63C1099.76 148.145 1113.58 143.281 1123.54 136.04C1133.51 128.798 1139.19 119.511 1140.6 108.178L1054.9 120.237C1053.03 120.501 1051.41 120.118 1050.03 119.089C1048.66 118.06 1047.84 116.614 1047.58 114.75L1044.71 94.3766C1044.45 92.5124 1044.84 90.8963 1045.87 89.5285C1046.91 88.1606 1048.36 87.3448 1050.24 87.0812L1133.12 75.4169C1123.38 61.4433 1104.39 56.4429 1076.16 60.4158L1047.06 64.511C1045.32 64.7558 1043.73 64.3351 1042.28 63.249C1040.83 62.1629 1039.98 60.7543 1039.74 59.0232L1036 32.4583C1035.74 30.5941 1036.12 28.978 1037.16 27.6102C1038.19 26.2423 1039.65 25.4265 1041.52 25.1629L1208.5 1.66476C1210.37 1.40116 1212 1.78384 1213.37 2.8128C1214.74 3.84176 1215.56 5.28834 1215.82 7.15255L1218.69 27.5257C1218.95 29.3899 1218.56 31.0059 1217.53 32.3738C1216.49 33.7417 1215.04 34.5574 1213.17 34.821L1166.4 41.4016C1173.84 48.6393 1179.47 57.6241 1183.3 68.3561L1217.62 63.5266C1219.49 63.263 1221.11 63.6457 1222.48 64.6746C1223.86 65.7036 1224.67 67.1502 1224.94 69.0144Z" fill="black" fill-opacity="0.3"/>
</svg>
