<svg width="66" height="66" viewBox="0 0 66 66" fill="none" xmlns="http://www.w3.org/2000/svg">
<path fill-rule="evenodd" clip-rule="evenodd" d="M1.14177 0.80869C1.63431 0.380805 2.24263 0.108543 2.88985 0.0263137C3.53707 -0.0559153 4.19414 0.05558 4.77801 0.346708L64.1722 30.0456C64.7213 30.3192 65.1832 30.7406 65.5061 31.2623C65.829 31.784 66 32.3854 66 32.9989C66 33.6125 65.829 34.2139 65.5061 34.7356C65.1832 35.2573 64.7213 35.6787 64.1722 35.9523L4.77801 65.6512C4.19418 65.9433 3.53682 66.0557 2.8891 65.9741C2.24138 65.8925 1.63242 65.6206 1.13927 65.1928C0.64613 64.765 0.290967 64.2005 0.118726 63.5707C-0.0535151 62.941 -0.0350916 62.2743 0.171665 61.655L8.62544 36.2988H26.4008C27.2759 36.2988 28.1152 35.9512 28.734 35.3323C29.3528 34.7135 29.7005 33.8741 29.7005 32.9989C29.7005 32.1238 29.3528 31.2844 28.734 30.6656C28.1152 30.0467 27.2759 29.6991 26.4008 29.6991H8.62544L0.168364 4.34285C-0.0373266 3.72384 -0.0549526 3.05774 0.117712 2.42871C0.290377 1.79968 0.648887 1.23593 1.14177 0.80869Z" fill="#1FD5E2"/>
</svg>
